<svg xmlns="http://www.w3.org/2000/svg" width="642.647" height="687.345" viewBox="0 0 642.647 687.345">
  <g id="Group_4" data-name="Group 4" transform="translate(-1120 -247.999)">
    <g id="blob-shape_3_" data-name="blob-shape (3)" transform="translate(1332.444 450.534)">
      <path id="Path_3" data-name="Path 3" d="M266.412-114.471c56.746,48.35,113.057,96.7,142.009,164.157s30.689,154.169-4.777,222.64S295.364,391.173,215.6,418.388C135.984,445.748,49.273,449.8-1.248,408.11c-50.521-41.546-65-128.836-107.122-200.636-42.125-71.945-111.9-128.257-102.779-169.223S-114.015-28.049-49.887-75.1C14.241-122.288,54.484-190.9,103.413-201.181,152.2-211.314,209.666-162.82,266.412-114.471Z" fill="#c0dbff"/>
    </g>
    <g id="blob-shape_4_" data-name="blob-shape (4)" transform="translate(1234.633 574.876)">
      <path id="Path_4" data-name="Path 4" d="M270.96-128.155c65.919,9.194,127.475,69.971,130.747,134.02,3.273,64.2-51.894,131.994-107.528,171.888s-112.047,52.205-172.668,91.009C60.735,307.565-4.249,373.017-38.377,358.368c-34.128-14.493-37.4-109.086-50.024-176.1-12.467-67.166-34.44-107.06-23.064-135.734,11.22-28.674,55.79-46.284,90.541-60.932C13.984-29.043,38.918-40.731,86.76-67.69,134.446-94.806,204.885-137.194,270.96-128.155Z" transform="translate(0 0)" fill="rgba(192,219,255,0.61)"/>
    </g>
    <g id="Group_3" data-name="Group 3" transform="translate(1337.206 410.001)">
      <path id="Path_5" data-name="Path 5" d="M280.795,140.4a140.3,140.3,0,0,1-97.826,133.818,137.589,137.589,0,0,1-20.24,4.807.433.433,0,0,1-.092.013q-5.1.816-10.313,1.255-1.112.093-2.23.171c-1.05.069-2.1.131-3.164.178q-3.249.154-6.532.154-3.371,0-6.693-.161-1.5-.067-3.01-.178c-.75-.051-1.5-.1-2.241-.165q-5.338-.447-10.559-1.3c-1.662-.27-3.318-.561-4.957-.889a138.673,138.673,0,0,1-20.7-5.793q-5.8-2.114-11.358-4.722-1.89-.887-3.76-1.84-4.794-2.423-9.368-5.2A140.4,140.4,0,1,1,280.795,140.4Zm0,0" fill="#ffe152"/>
      <path id="Path_6" data-name="Path 6" d="M122.857,300.884v95.911a138.672,138.672,0,0,1-20.7-5.793q-5.8-2.114-11.358-4.722-1.889-.887-3.76-1.84-4.794-2.423-9.368-5.2a140.807,140.807,0,0,1-55.706-63.178V300.884a38.056,38.056,0,0,1,28.188-36.755c.6-.161,1.191-.311,1.8-.435a36.752,36.752,0,0,1,4.951-.735c1.026-.079,2.063-.126,3.111-.126H84.8a37.827,37.827,0,0,1,8.07.861c.148.028.3.062.446.1.437.1.878.206,1.307.321a.314.314,0,0,0,.034.011,38.093,38.093,0,0,1,28.2,36.762Zm0,0" transform="translate(-9.919 -118.688)" fill="#2ba1cf"/>
      <path id="Path_7" data-name="Path 7" d="M136.3,300.884v95.911A138.673,138.673,0,0,1,115.6,391q-5.8-2.114-11.358-4.722-1.889-.887-3.76-1.84-4.794-2.423-9.368-5.2a141.134,141.134,0,0,1-39.375-35.511V300.884a38.056,38.056,0,0,1,28.188-36.755c.6-.161,1.193-.311,1.8-.435a36.854,36.854,0,0,1,4.951-.735c1.026-.079,2.063-.126,3.113-.126h8.451a37.829,37.829,0,0,1,8.07.861c.148.028.3.062.446.1.437.1.878.206,1.307.321a.3.3,0,0,0,.034.011,38.093,38.093,0,0,1,28.2,36.762Zm0,0" transform="translate(-23.366 -118.688)" fill="#66baed"/>
      <path id="Path_8" data-name="Path 8" d="M117.887,264.4l-.09.431-11.384,52.947a11.075,11.075,0,0,1-10.771,8.781h-.193a11.073,11.073,0,0,1-10.771-8.781L73.293,264.833l-.09-.435Zm0,0" transform="translate(-33.057 -119.395)" fill="#f2f0ec"/>
      <path id="Path_9" data-name="Path 9" d="M95.545,273.957l-17.132,9.52-5.21-24.24,10.645-6.268" transform="translate(-33.056 -114.234)" fill="#d8d5d0"/>
      <path id="Path_10" data-name="Path 10" d="M113.941,273.957l17.132,9.52,5.21-24.24-10.645-6.268" transform="translate(-51.453 -114.234)" fill="#d8d5d0"/>
      <path id="Path_11" data-name="Path 11" d="M20.676,156.735V99.347a51.154,51.154,0,1,1,102.307,0v57.388" transform="translate(-9.337 -21.762)" fill="#cc7a3b"/>
      <path id="Path_12" data-name="Path 12" d="M41.716,101.592c0,20.3,11.888,43.782,18.415,55.147H20.672V99.351A51.122,51.122,0,0,1,71.453,48.2c-15.727.392-29.737,25.624-29.737,53.392Zm0,0" transform="translate(-9.335 -21.766)" fill="#a35418"/>
      <path id="Path_13" data-name="Path 13" d="M116.347,236.1v16.663a13.576,13.576,0,0,1-27.151,0V236.1Zm0,0" transform="translate(-40.278 -106.619)" fill="#eab599"/>
      <path id="Path_14" data-name="Path 14" d="M123.05,264.563v1.056a13.574,13.574,0,0,1-9.561,12.967,13.57,13.57,0,0,1-9.45-11.2q1.359.084,2.734.084a46.9,46.9,0,0,0,16.277-2.907Zm0,0" transform="translate(-46.981 -119.47)" fill="#f6caae"/>
      <path id="Path_15" data-name="Path 15" d="M25.251,175.921a12.625,12.625,0,1,1-10.6-12.462,12.626,12.626,0,0,1,10.6,12.462Zm0,0" transform="translate(0 -73.741)" fill="#f6caae"/>
      <path id="Path_16" data-name="Path 16" d="M35.932,176.055a12.626,12.626,0,0,1-10.6,12.464,47.195,47.195,0,0,1,0-24.926,12.623,12.623,0,0,1,10.6,12.462Zm0,0" transform="translate(-10.681 -73.875)" fill="#eab599"/>
      <path id="Path_17" data-name="Path 17" d="M23.818,182.6a4.513,4.513,0,1,1-4.514-4.512A4.513,4.513,0,0,1,23.818,182.6Zm0,0" transform="translate(-6.68 -80.421)" fill="#eab599"/>
      <path id="Path_18" data-name="Path 18" d="M107.689,133.326v43.4A46.8,46.8,0,0,1,82.81,189.1l-.231.039a46.384,46.384,0,0,1-7.309.568A46.973,46.973,0,0,1,28.3,142.739V124.851a47.336,47.336,0,0,1,.48-6.746A29.769,29.769,0,0,0,66.188,115.7a26.6,26.6,0,0,0,7.059-11.031,31,31,0,0,0,9.7,19.351,34.668,34.668,0,0,0,24.746,9.306Zm0,0" transform="translate(-12.778 -47.265)" fill="#eab599"/>
      <path id="Path_19" data-name="Path 19" d="M119.733,133.326v43.4A46.8,46.8,0,0,1,94.854,189.1l-.231.039a46.98,46.98,0,0,1-39.654-46.4V124.851q0-.713.026-1.42A29.435,29.435,0,0,0,78.232,115.7a26.6,26.6,0,0,0,7.059-11.029,31,31,0,0,0,9.7,19.351A34.669,34.669,0,0,0,119.733,133.326Zm0,0" transform="translate(-24.823 -47.265)" fill="#f6caae"/>
      <path id="Path_20" data-name="Path 20" d="M147.1,160.428a7.8,7.8,0,0,0-15.6,0" transform="translate(-59.38 -68.922)" fill="#eab599"/>
      <path id="Path_21" data-name="Path 21" d="M83.563,160.428a7.8,7.8,0,1,0-15.6,0" transform="translate(-30.689 -68.922)" fill="#eab599"/>
      <path id="Path_22" data-name="Path 22" d="M83.127,168.519a5.329,5.329,0,1,1-5.33-5.328A5.33,5.33,0,0,1,83.127,168.519Zm0,0" transform="translate(-32.725 -73.693)" fill="#3d4159"/>
      <path id="Path_23" data-name="Path 23" d="M146.664,168.519a5.328,5.328,0,1,1-5.328-5.328A5.328,5.328,0,0,1,146.664,168.519Zm0,0" transform="translate(-61.418 -73.693)" fill="#3d4159"/>
      <path id="Path_24" data-name="Path 24" d="M113,193.586H102.346a2.3,2.3,0,1,1,0-4.6H113a2.3,2.3,0,0,1,0,4.6Zm0,0" transform="translate(-45.179 -85.342)" fill="#eab599"/>
      <path id="Path_25" data-name="Path 25" d="M103.631,218.227a23.725,23.725,0,0,1-11.453-2.959,2.089,2.089,0,1,1,2.014-3.661,19.5,19.5,0,0,0,18.878,0,2.089,2.089,0,1,1,2.014,3.661,23.725,23.725,0,0,1-11.453,2.959Zm0,0" transform="translate(-41.136 -95.439)" fill="#eab599"/>
      <path id="Path_26" data-name="Path 26" d="M86.161,169.311a2.284,2.284,0,1,1-2.284-2.284A2.284,2.284,0,0,1,86.161,169.311Zm0,0" transform="translate(-36.846 -75.425)" fill="#fff"/>
      <path id="Path_27" data-name="Path 27" d="M150.175,169.311a2.283,2.283,0,1,1-2.282-2.284A2.283,2.283,0,0,1,150.175,169.311Zm0,0" transform="translate(-65.753 -75.425)" fill="#fff"/>
      <path id="Path_28" data-name="Path 28" d="M162.613,191.755a5.852,5.852,0,1,1-5.853-5.853A5.852,5.852,0,0,1,162.613,191.755Zm0,0" transform="translate(-68.147 -83.949)" fill="#eab599"/>
      <path id="Path_29" data-name="Path 29" d="M67.354,191.755A5.851,5.851,0,1,1,61.5,185.9,5.85,5.85,0,0,1,67.354,191.755Zm0,0" transform="translate(-25.131 -83.949)" fill="#eab599"/>
      <path id="Path_30" data-name="Path 30" d="M402.108,297.33v17.575a140.955,140.955,0,0,1-68.286,68.984,140.123,140.123,0,0,1-37.18,11.425.435.435,0,0,1-.092.013v-98a39.8,39.8,0,0,1,36.556-39.673c1.078-.092,2.159-.131,3.254-.131h25.926a39.748,39.748,0,0,1,39.821,39.8Zm0,0" transform="translate(-133.914 -116.292)" fill="#bfd5de"/>
      <path id="Path_31" data-name="Path 31" d="M418.849,297.331v17.575a140.954,140.954,0,0,1-68.286,68.984,138.952,138.952,0,0,1-16.939,6.617V297.331a39.812,39.812,0,0,1,39.817-39.8h5.591a39.808,39.808,0,0,1,39.817,39.8Zm0,0" transform="translate(-150.656 -116.293)" fill="#dde8ed"/>
      <path id="Path_32" data-name="Path 32" d="M299.981,166.588a13.2,13.2,0,1,1-11.093-13.04,13.209,13.209,0,0,1,11.093,13.04Zm0,0" transform="translate(-123.533 -69.262)" fill="#d3a489"/>
      <path id="Path_33" data-name="Path 33" d="M394.672,283.711l-10.688,17.143L373.3,283.711" transform="translate(-168.57 -128.116)" fill="#f74f4f"/>
      <path id="Path_34" data-name="Path 34" d="M395.323,359.721l-14.379,18.145-14.381-18.145,14.383-52.885Zm0,0" transform="translate(-165.53 -138.559)" fill="#f74f4f"/>
      <path id="Path_35" data-name="Path 35" d="M311.157,166.728a13.209,13.209,0,0,1-11.093,13.04,49.394,49.394,0,0,1,0-26.08A13.212,13.212,0,0,1,311.157,166.728Zm0,0" transform="translate(-134.71 -69.401)" fill="#bf8e75"/>
      <path id="Path_36" data-name="Path 36" d="M298.484,173.579a4.721,4.721,0,1,1-4.722-4.719A4.722,4.722,0,0,1,298.484,173.579Zm0,0" transform="translate(-130.524 -76.253)" fill="#bf8e75"/>
      <path id="Path_37" data-name="Path 37" d="M373.53,269.156l-17.922,9.962-5.452-25.363,11.136-6.56" transform="translate(-158.121 -111.627)" fill="#bfd5de"/>
      <path id="Path_38" data-name="Path 38" d="M392.777,269.156l17.925,9.962,5.452-25.363-11.138-6.56" transform="translate(-177.367 -111.627)" fill="#bfd5de"/>
      <path id="Path_39" data-name="Path 39" d="M463.828,166.588a13.2,13.2,0,1,0,11.093-13.04,13.209,13.209,0,0,0-11.093,13.04Zm0,0" transform="translate(-209.452 -69.262)" fill="#d3a489"/>
      <g id="Group_2" data-name="Group 2" transform="translate(166.265 41.077)">
        <path id="Path_40" data-name="Path 40" d="M463.828,166.728a13.209,13.209,0,0,0,11.093,13.04,49.394,49.394,0,0,0,0-26.08A13.212,13.212,0,0,0,463.828,166.728Zm0,0" transform="translate(-375.717 -110.479)" fill="#bf8e75"/>
        <path id="Path_41" data-name="Path 41" d="M488.747,173.579a4.722,4.722,0,1,1-4.722-4.719A4.722,4.722,0,0,1,488.747,173.579Zm0,0" transform="translate(-382.706 -117.33)" fill="#bf8e75"/>
        <path id="Path_42" data-name="Path 42" d="M401.462,124.129A49.15,49.15,0,0,1,360.2,172.641a48.551,48.551,0,0,1-7.888.634,49.144,49.144,0,0,1-49.146-49.146c0-12.843,4.46-32.124,12.526-40.879,8.98-9.75,22.318-8.269,36.62-8.269a48.569,48.569,0,0,1,7.888.636,49.149,49.149,0,0,1,41.261,48.512Zm0,0" transform="translate(-303.167 -74.9)" fill="#bf8e75"/>
        <path id="Path_43" data-name="Path 43" d="M395.292,229.559v17.432a14.2,14.2,0,0,1-28.409,0V229.559Zm0,0" transform="translate(-331.94 -144.74)" fill="#bf8e75"/>
      </g>
      <path id="Path_44" data-name="Path 44" d="M402.306,259.328v1.105A14.2,14.2,0,0,1,392.3,274a14.2,14.2,0,0,1-9.887-11.718q1.424.087,2.862.088a48.833,48.833,0,0,0,7.888-.634,48.328,48.328,0,0,0,9.141-2.408Zm0,0" transform="translate(-172.688 -117.106)" fill="#d3a489"/>
      <path id="Path_45" data-name="Path 45" d="M414.452,124.717a49.15,49.15,0,0,1-41.261,48.512,49.152,49.152,0,0,1,0-97.027,49.164,49.164,0,0,1,41.019,43.613c.161,1.613.242,3.25.242,4.9Zm0,0" transform="translate(-149.892 -34.411)" fill="#d3a489"/>
      <path id="Path_46" data-name="Path 46" d="M381.985,202.876A24.824,24.824,0,0,1,370,199.783a2.186,2.186,0,1,1,2.106-3.83,20.412,20.412,0,0,0,19.752,0,2.186,2.186,0,0,1,2.106,3.83,24.836,24.836,0,0,1-11.982,3.093Zm0,0" transform="translate(-166.571 -88.364)" fill="#bf8e75"/>
      <path id="Path_47" data-name="Path 47" d="M364.518,154.857a5.575,5.575,0,1,1-5.576-5.576A5.575,5.575,0,0,1,364.518,154.857Zm0,0" transform="translate(-159.571 -67.411)" fill="#3d4159"/>
      <path id="Path_48" data-name="Path 48" d="M423.018,154.857a5.575,5.575,0,1,1-5.574-5.576A5.574,5.574,0,0,1,423.018,154.857Zm0,0" transform="translate(-185.988 -67.411)" fill="#3d4159"/>
      <path id="Path_49" data-name="Path 49" d="M367.691,155.685A2.389,2.389,0,1,1,365.3,153.3,2.39,2.39,0,0,1,367.691,155.685Zm0,0" transform="translate(-163.882 -69.225)" fill="#fff"/>
      <path id="Path_50" data-name="Path 50" d="M426.691,155.685A2.389,2.389,0,1,1,424.3,153.3,2.39,2.39,0,0,1,426.691,155.685Zm0,0" transform="translate(-190.525 -69.225)" fill="#fff"/>
      <path id="Path_51" data-name="Path 51" d="M391.787,181.083H380.636a2.4,2.4,0,1,1,0-4.809h11.151a2.4,2.4,0,1,1,0,4.809Zm0,0" transform="translate(-170.799 -79.601)" fill="#bf8e75"/>
      <path id="Path_52" data-name="Path 52" d="M422.289,327.727h21.425v6.558H422.289Zm0,0" transform="translate(-190.694 -147.993)" fill="#bfd5de"/>
      <path id="Path_53" data-name="Path 53" d="M387.539,49.386a29.786,29.786,0,0,1,27.6,28.229l.141,2.843h8.565l4.612,30.673,11.172-3.458-1.5-30.056a29.788,29.788,0,0,0-29.864-28.308Zm0,0" transform="translate(-175.002 -22.267)" fill="#2a2f4f"/>
      <path id="Path_54" data-name="Path 54" d="M442.708,27.816A30.359,30.359,0,1,1,399.774,70.75Zm0,0" transform="translate(-180.527 -12.561)" fill="#3d4159"/>
      <path id="Path_55" data-name="Path 55" d="M356.1,80.454H318.837l-4.615,30.676-11.172-3.458,1.5-30.059A29.792,29.792,0,0,1,334.414,49.3l53.812.2,7.115,12.8" transform="translate(-136.849 -22.265)" fill="#3d4159"/>
      <path id="Path_56" data-name="Path 56" d="M355.136,49.386a29.786,29.786,0,0,0-27.6,28.229l-.141,2.843h-8.563l-4.615,30.673-11.172-3.458,1.5-30.056A29.788,29.788,0,0,1,334.41,49.308Zm0,0" transform="translate(-136.848 -22.267)" fill="#2a2f4f"/>
      <path id="Path_57" data-name="Path 57" d="M266.5,431.777V442.3a140.766,140.766,0,0,1-119.028-.006V431.777a44.9,44.9,0,0,1,33.259-43.369c.7-.189,1.405-.362,2.121-.516a44.373,44.373,0,0,1,5.84-.859c1.215-.1,2.436-.15,3.674-.15h29.236a45,45,0,0,1,9.525,1.009c.178.034.356.075.527.116.516.12,1.03.246,1.54.383a.229.229,0,0,1,.041.011,44.939,44.939,0,0,1,33.266,43.375Zm0,0" transform="translate(-66.597 -174.706)" fill="#3d4159"/>
      <path id="Path_58" data-name="Path 58" d="M260.646,388.723l-.109.51-14.319,66.6q-1.112.093-2.23.171c-1.05.069-2.1.131-3.164.178q-3.249.154-6.532.154-3.371,0-6.693-.161-1.5-.067-3.01-.178c-.75-.051-1.5-.1-2.241-.165l-14.315-66.589-.107-.516Zm0,0" transform="translate(-93.894 -175.537)" fill="#66baed"/>
      <path id="Path_59" data-name="Path 59" d="M258.123,416.422,246.07,435.75l-12.05-19.328" transform="translate(-105.677 -188.045)" fill="#3d4159"/>
      <path id="Path_60" data-name="Path 60" d="M257.707,480.281c-1.05.069-2.1.131-3.164.178q-3.249.154-6.532.154-3.371,0-6.693-.161-1.5-.067-3.01-.178l9.7-37.781Zm0,0" transform="translate(-107.614 -199.818)" fill="#3d4159"/>
      <path id="Path_61" data-name="Path 61" d="M234.283,400.005,214.07,411.238l-6.148-28.6,12.558-7.4" transform="translate(-93.892 -169.45)" fill="#2ba1cf"/>
      <path id="Path_62" data-name="Path 62" d="M255.988,400.005l20.21,11.232,6.148-28.6-12.558-7.4" transform="translate(-115.597 -169.45)" fill="#2ba1cf"/>
      <path id="Path_63" data-name="Path 63" d="M288.5,427.319h6.412l-11.2,27.241a139.509,139.509,0,0,1-15.8,1.617l19.673-66.955.15-.5,13.829,4.516Zm0,0" transform="translate(-120.981 -175.537)" fill="#2a2f4f"/>
      <path id="Path_64" data-name="Path 64" d="M216.085,456.171a139.075,139.075,0,0,1-15.81-1.639l-11.187-27.214H195.5l-13.07-34.08,13.833-4.516.15.5Zm0,0" transform="translate(-82.38 -175.537)" fill="#2a2f4f"/>
      <path id="Path_65" data-name="Path 65" d="M258.821,355.352v19.656a16.018,16.018,0,0,1-32.036,0V355.352Zm0,0" transform="translate(-102.41 -160.467)" fill="#eab599"/>
      <path id="Path_66" data-name="Path 66" d="M266.729,388.922v1.247a16.019,16.019,0,0,1-11.281,15.3A16.014,16.014,0,0,1,244.3,392.253q1.607.1,3.226.1a55.224,55.224,0,0,0,19.206-3.43Zm0,0" transform="translate(-110.318 -175.627)" fill="#f6caae"/>
      <path id="Path_67" data-name="Path 67" d="M151.344,284.342a14.9,14.9,0,0,1-12.511,14.7,15.074,15.074,0,0,1-2.384.191,14.9,14.9,0,1,1,14.9-14.9Zm0,0" transform="translate(-54.889 -121.674)" fill="#f6caae"/>
      <path id="Path_68" data-name="Path 68" d="M163.947,284.5a14.9,14.9,0,0,1-12.511,14.7,55.724,55.724,0,0,1,0-29.409A14.9,14.9,0,0,1,163.947,284.5Zm0,0" transform="translate(-67.493 -121.833)" fill="#eab599"/>
      <path id="Path_69" data-name="Path 69" d="M149.655,292.226a5.324,5.324,0,1,1-5.324-5.324A5.325,5.325,0,0,1,149.655,292.226Zm0,0" transform="translate(-62.772 -129.557)" fill="#eab599"/>
      <path id="Path_70" data-name="Path 70" d="M336.105,284.342a14.9,14.9,0,0,0,12.511,14.7,15.053,15.053,0,0,0,2.384.191,14.9,14.9,0,1,0-14.9-14.9Zm0,0" transform="translate(-151.776 -121.674)" fill="#f6caae"/>
      <path id="Path_71" data-name="Path 71" d="M336.105,284.5a14.9,14.9,0,0,0,12.511,14.7,55.724,55.724,0,0,0,0-29.409A14.9,14.9,0,0,0,336.105,284.5Zm0,0" transform="translate(-151.776 -121.833)" fill="#eab599"/>
      <path id="Path_72" data-name="Path 72" d="M265.782,198.06v21.1a55.422,55.422,0,0,1-46.528,54.7l-.27.045a54.454,54.454,0,0,1-8.625.671,55.417,55.417,0,0,1-55.417-55.417V198.06a55.387,55.387,0,0,1,55.417-55.423h0a55.382,55.382,0,0,1,55.419,55.423Zm0,0" transform="translate(-69.967 -64.411)" fill="#eab599"/>
      <path id="Path_73" data-name="Path 73" d="M364.206,292.226a5.324,5.324,0,1,1-5.324-5.324A5.323,5.323,0,0,1,364.206,292.226Zm0,0" transform="translate(-159.658 -129.557)" fill="#eab599"/>
      <path id="Path_74" data-name="Path 74" d="M279.988,198.612v21.1a55.422,55.422,0,0,1-46.526,54.7l-.272.045a55.429,55.429,0,0,1-46.783-54.748v-21.1A55.432,55.432,0,0,1,233.2,143.859,55.43,55.43,0,0,1,279.988,198.612Zm0,0" transform="translate(-84.176 -64.963)" fill="#f6caae"/>
      <path id="Path_75" data-name="Path 75" d="M224.116,271.114a6.287,6.287,0,1,1-6.285-6.285A6.287,6.287,0,0,1,224.116,271.114Zm0,0" transform="translate(-95.527 -119.589)" fill="#3d4159"/>
      <path id="Path_76" data-name="Path 76" d="M290.087,271.114a6.288,6.288,0,1,1-6.288-6.285A6.287,6.287,0,0,1,290.087,271.114Zm0,0" transform="translate(-125.317 -119.589)" fill="#3d4159"/>
      <path id="Path_77" data-name="Path 77" d="M227.7,272.051a2.694,2.694,0,1,1-2.7-2.7A2.694,2.694,0,0,1,227.7,272.051Zm0,0" transform="translate(-100.389 -121.634)" fill="#fff"/>
      <path id="Path_78" data-name="Path 78" d="M294.228,272.051a2.694,2.694,0,1,1-2.693-2.7A2.693,2.693,0,0,1,294.228,272.051Zm0,0" transform="translate(-130.432 -121.634)" fill="#fff"/>
      <path id="Path_79" data-name="Path 79" d="M254.869,296.194H242.294a2.712,2.712,0,1,1,0-5.424h12.575a2.712,2.712,0,1,1,0,5.424Zm0,0" transform="translate(-108.189 -131.304)" fill="#eab599"/>
      <path id="Path_80" data-name="Path 80" d="M243.814,325.262a28,28,0,0,1-13.511-3.49,2.466,2.466,0,0,1,2.376-4.321,23,23,0,0,0,22.271,0,2.466,2.466,0,0,1,2.376,4.321,28,28,0,0,1-13.511,3.49Zm0,0" transform="translate(-103.421 -143.215)" fill="#eab599"/>
      <path id="Path_81" data-name="Path 81" d="M265.78,172.032v21.618H255.465V176.719l-74.458-13.835-15.754-2.929v33.694H154.937v-21.62a44.616,44.616,0,0,1,44.615-44.62h21.612c.587,0,1.174.011,1.761.041a44.609,44.609,0,0,1,42.854,44.581Zm0,0" transform="translate(-69.965 -57.535)" fill="#2a2f4f"/>
      <path id="Path_82" data-name="Path 82" d="M287.245,172.065v21.618H276.93V176.752l-74.458-13.835a44.621,44.621,0,0,1,41.918-35.434,44.609,44.609,0,0,1,42.854,44.581Zm0,0" transform="translate(-91.431 -57.569)" fill="#3d4159"/>
    </g>
  </g>
</svg>
