<svg id="Layer_1" enable-background="new 0 0 512 512" height="512" viewBox="0 0 512 512" width="512" xmlns="http://www.w3.org/2000/svg"><g><path d="m255.983 320.965c-7.959 9.37-18.597 16.395-30.718 19.882 4.955 12.102 16.855 20.652 30.719 20.652 13.879 0 25.784-8.549 30.746-20.651-7.167-2.048-19.87-7.082-30.747-19.883z"/><path d="m259.638 125.952c-2.389.597-4.888.597-7.276 0l-57.34-14.335-52.555 39.416v67.556c0 4.576 1.784 8.882 5.024 12.125l22.716 22.712c2.813 2.813 4.394 6.628 4.394 10.607v16.067c0 18.324 14.821 33.2 33.2 33.2 18.314 0 33.2-14.886 33.2-33.184v-1.083h-17.133c-8.284 0-15-6.716-15-15s6.716-15 15-15h64.267c8.284 0 15 6.716 15 15s-6.716 15-15 15h-17.135v1.067c0 18.324 14.821 33.2 33.2 33.2 18.313 0 33.2-14.886 33.2-33.184v-16.083c0-3.979 1.581-7.794 4.394-10.607l22.723-22.72c3.232-3.236 5.017-7.542 5.017-12.118v-67.556l-52.555-39.416zm-51.838 72.748h-16.066c-8.284 0-15-6.716-15-15s6.716-15 15-15h16.066c8.284 0 15 6.716 15 15s-6.716 15-15 15zm127.467-15c0 8.284-6.716 15-15 15h-16.067c-8.284 0-15-6.716-15-15s6.716-15 15-15h16.066c8.285 0 15.001 6.716 15.001 15z"/><path d="m470.232 179.557c-.039-.053-.079-.107-.119-.16-.99-1.313-.858-3.172.311-4.33l21.068-20.88c4.978-4.935 5.875-12.659 2.16-18.603l-20.729-33.17c-18.938-30.301-77.652-102.414-184.79-102.414-2.329 0-4.625.542-6.708 1.583l-25.425 12.713-25.425-12.713c-2.083-1.041-4.38-1.583-6.708-1.583-107.138 0-165.852 72.113-184.791 102.413l-20.729 33.17c-3.715 5.944-2.818 13.668 2.16 18.603l21.068 20.88c1.169 1.158 1.301 3.018.311 4.33-.04.053-.08.106-.119.16-26.935 35.762-41.767 80.103-41.767 124.877v15.833c0 5.717 5.578 19.924 23.071 12.927 27.418-10.972 57.263 9.243 57.263 38.759v9.978c0 36.857 23.49 69.449 58.453 81.1 7.533 2.511 14.174-1.331 17.227-5.908l8.266-12.401c2.98-4.47 7.966-7.312 13.335-7.597 5.371-.285 10.639 2.009 14.082 6.138l52.781 63.34c2.85 3.42 7.071 5.397 11.523 5.397s8.673-1.977 11.523-5.397l52.781-63.34c3.443-4.129 8.711-6.423 14.082-6.138 5.369.285 10.355 3.127 13.335 7.597l8.266 12.401c3.052 4.577 9.694 8.419 17.227 5.908 34.962-11.651 58.453-44.242 58.453-81.1v-9.978c0-29.516 29.845-49.731 57.263-38.759 17.493 6.997 23.071-7.21 23.071-12.927v-15.833c-.002-44.774-14.834-89.115-41.77-124.876zm-70.699 39.032c0 12.583-4.901 24.419-13.799 33.327l-18.334 18.331v9.869c0 30.202-21.306 55.508-49.673 61.714-6.214 28.366-31.523 49.67-61.727 49.67-30.212 0-55.518-21.3-61.728-49.662-15.362-3.334-49.672-20.12-49.672-61.738v-9.853l-18.327-18.324c-8.906-8.916-13.807-20.751-13.807-33.334v-75.056c0-4.721 2.223-9.167 6-12l64.267-48.2c3.614-2.71 8.256-3.646 12.638-2.552l60.629 15.157 60.628-15.157c4.383-1.096 9.024-.158 12.638 2.552l64.267 48.2c3.777 2.833 6 7.279 6 12z"/></g></svg>